Darkness.2002.PL.DVDRip.XviD-RLF
--------------------------------

GENERAL

Complete name: rlf-darkness-pl.avi
Format: AVI
Format/Info: Audio Video Interleave
File size: 700 MiB
Duration: 1h 38mn
Overall bit rate: 997 Kbps
Language: Polish
Subs: None  
Encoder: Ralf

Video:

Format: MPEG-4 Visual
Format profile: Advanced Simple@L5
Format settings, BVOP: 2
Format settings, QPel: No
Format settings, GMC: No warppoints
Format settings, Matrix: H.263
Muxing mode: Packed bitstream
Codec ID: XVID
Duration: 1h 38mn
Bit rate: 860 Kbps
Width: 688 pixels
Height: 368 pixels
Display aspect ratio: 1.870
Frame rate: 25.000 fps
Color space: YUV
Chroma subsampling: 4:2:0
Bit depth: 8 bits
Scan type: Progressive
Bits/(Pixel*Frame): 0.136
Stream size: 603 MiB (86%)

Audio:

Format: MPEG Audio
Format profile: Layer 3
Codec ID/Hint: MP3
Duration: 1h 38mn
Bit rate mode: Constant
Bit rate: 128 Kbps
Channel(s): 2 channels
Sampling rate: 48.0 KHz
Stream size: 89.8 MiB (13%)
Alignment: Split accross interleaves

MOVIE INFO

Amerykanska rodzina przeprowadza sie do opuszczonej od 40 lat posiadlosci
w Hiszpanii. Wkrotce jej czlonkowie zaczynaja zachowywac sie bardzo dziwnie.
                                
http://www.imdb.com/title/tt0273517/ 
http://www.filmweb.pl/Ciemnosc

SCREENS
 
http://www.postimg.com/56000/photo-55499.jpg 
http://www.postimg.com/56000/photo-55500.jpg 
http://www.postimg.com/56000/photo-55501.jpg 
http://www.postimg.com/56000/photo-55502.jpg
